<?xml version="1.0" encoding="UTF-8" standalone="no"?>
<svg
   xmlns:dc="http://purl.org/dc/elements/1.1/"
   xmlns:cc="http://creativecommons.org/ns#"
   xmlns:rdf="http://www.w3.org/1999/02/22-rdf-syntax-ns#"
   xmlns:svg="http://www.w3.org/2000/svg"
   xmlns="http://www.w3.org/2000/svg"
   viewBox="0 0 426.66666 426.66666"
   height="426.66666"
   width="426.66666"
   xml:space="preserve"
   id="svg853"
   version="1.1"><metadata
     id="metadata859"><rdf:RDF><cc:Work
         rdf:about=""><dc:format>image/svg+xml</dc:format><dc:type
           rdf:resource="http://purl.org/dc/dcmitype/StillImage" /><dc:title></dc:title></cc:Work></rdf:RDF></metadata><defs
     id="defs857" /><g
     transform="matrix(1.3333333,0,0,-1.3333333,0,426.66667)"
     id="g861"><g
       transform="scale(0.1)"
       id="g863"><path
         id="path865"
         style="fill:#ab1b93;fill-opacity:1;fill-rule:nonzero;stroke:none"
         d="m 1334.79,1827.08 c -129.29,0 -233.93,-103.93 -233.93,-232.45 0,-128.64 104.64,-232.81 233.93,-232.81 128.93,0 233.96,104.17 233.96,232.81 0,128.52 -105.03,232.45 -233.96,232.45" /><path
         id="path867"
         style="fill:#ab1b93;fill-opacity:1;fill-rule:nonzero;stroke:none"
         d="m 1865.25,1827.08 c -129.09,0 -233.96,-103.93 -233.96,-232.45 0,-128.64 104.87,-232.81 233.96,-232.81 129.11,0 233.73,104.17 233.73,232.81 0,128.52 -104.62,232.45 -233.73,232.45" /><path
         id="path869"
         style="fill:#ab1b93;fill-opacity:1;fill-rule:nonzero;stroke:none"
         d="m 1597.86,816.109 c -429.96,0 -788.212,347.681 -788.212,781.671 0,431.9 358.252,786.04 788.212,786.04 436.42,0 792.41,-354.14 792.41,-786.04 0,-433.99 -355.99,-781.671 -792.41,-781.671 z m 1227.95,783.331 -6.19,121.67 c 94.78,40.31 188.26,88.19 280.38,143.44 -7.62,57.3 -26.14,112.5 -39.77,168.63 -108.41,14.61 -218.13,19.42 -322.57,16.53 -13.95,38.13 -34.32,73.62 -51.3,110.57 -18.4,36.24 -41.6,69.89 -62.2,104.95 66.2,80.46 125.3,165.3 181.07,257.04 -33.26,47.37 -75.7,87.23 -113.92,130.48 -102.59,-37.27 -201.94,-83.73 -293.08,-134.55 -30.42,27.11 -64.76,49.47 -97.01,74.42 -33.46,23.17 -69.38,42.83 -103.98,64.33 20.96,101.42 33.97,204.24 40.53,311.15 -51.72,26.55 -108.03,42.44 -162.24,63.14 -73.53,-80.34 -139.82,-167.59 -196.68,-254.78 -39.47,10.55 -80.54,13.56 -120.69,20.66 -40.36,6.47 -81.46,5.36 -122.13,8.38 -28.97,102.02 -65.44,196.6 -109.38,294.5 -57.96,-1.17 -115.35,-10.11 -172.71,-19.29 -28.07,-103.07 -46,-211.69 -55.51,-316.19 -40.05,-8.62 -78.27,-23.04 -116.54,-37.27 -39.02,-12.45 -75.33,-31.24 -112.11,-48.86 -73.05,76.21 -151.042,145.65 -235.073,210.27 -50.559,-28.58 -97.961,-61.78 -143.691,-97.27 23.718,-104.5 58.347,-208.21 99.05,-305.35 -31.304,-26.31 -58.472,-56.63 -85.742,-86.94 -28.738,-29.02 -51.941,-62.6 -76.57,-94.93 -100.293,33.94 -201.301,59.25 -306.152,78.06 -31.59,-48.55 -57.747,-100.06 -82.122,-152.61 69.512,-81.65 148.958,-157.79 230.215,-224.95 -15.586,-37.65 -25.347,-77.14 -35.222,-116.58 -11.77,-38.99 -17.071,-79.41 -23.106,-119.58 -104.328,-16.59 -207.129,-40.85 -307.578,-72.84 -3.9062,-57.47 -5.6327,-115.04 -1.023,-172.51 101.289,-39.93 203.093,-70.97 308.601,-92.79 6.035,-40.16 11.336,-80.53 23.106,-119.58 9.875,-39.42 19.636,-78.88 35.222,-116.57 -82.3,-61.79 -165.789,-132.45 -238.855,-206.822 25.398,-51.949 48.574,-105.168 80.32,-153.609 109.367,12.133 212.863,31.109 316.594,60.941 24.629,-32.359 47.832,-66 76.57,-94.949 27.27,-30.261 54.453,-60.633 85.742,-86.883 C 745.898,620 705.168,519.25 674.973,419.582 721.426,385 766.902,349.102 817.512,320.621 c 91.074,60.809 174.234,125.699 252.268,199.918 36.78,-17.609 73.09,-36.391 112.11,-48.891 38.27,-14.238 76.49,-28.656 116.54,-37.339 4.46,-102.411 15.55,-210.661 35.68,-313 57.36,-7.95 114.55,-20.379 172.48,-21.309 51.96,97.449 95.12,191.48 129.44,293.398 40.7,3 81.77,1.891 122.13,8.364 40.15,7.148 81.22,10.097 120.69,20.699 51.78,-89.012 111.1,-176.313 177.63,-261.102 54.7,19.11 110.05,37.532 163.11,60.821 0.74,110.211 -6.28,216.058 -22.35,319.761 34.6,21.5 70.52,41.2 103.98,64.391 32.25,24.879 66.59,47.25 97.01,74.359 87.47,-54.769 180.77,-104.57 279.17,-148.859 39.42,42.066 79.87,83.668 115.7,128.887 -50.83,98.031 -105.93,188.172 -168.94,273 20.6,35 43.8,68.691 62.2,104.931 16.98,36.91 37.35,72.39 51.3,110.59 103.08,-8.15 208.95,-9.11 316.87,-2.72 15.37,55.59 31.23,111.53 42.31,168.09 -90.75,63.08 -183.18,117.55 -277.22,163.14 l 6.19,121.69" /></g></g></svg>